<?xml version="1.0" encoding="UTF-8" standalone="no"?>
<!-- Created with Inkscape (http://www.inkscape.org/) -->

<svg
   xmlns:dc="http://purl.org/dc/elements/1.1/"
   xmlns:cc="http://creativecommons.org/ns#"
   xmlns:rdf="http://www.w3.org/1999/02/22-rdf-syntax-ns#"
   xmlns:svg="http://www.w3.org/2000/svg"
   xmlns="http://www.w3.org/2000/svg"
   xmlns:sodipodi="http://sodipodi.sourceforge.net/DTD/sodipodi-0.dtd"
   xmlns:inkscape="http://www.inkscape.org/namespaces/inkscape"
   width="2.8554058mm"
   height="2.8554058mm"
   viewBox="0 0 10.11758 10.11758"
   id="svg2"
   version="1.1"
   inkscape:version="0.91 r13725">
  <defs
     id="defs4">
    <pattern
       y="0"
       x="0"
       height="6"
       width="6"
       patternUnits="userSpaceOnUse"
       id="EMFhbasepattern" />
    <pattern
       y="0"
       x="0"
       height="6"
       width="6"
       patternUnits="userSpaceOnUse"
       id="EMFhbasepattern-5" />
    <pattern
       y="0"
       x="0"
       height="6"
       width="6"
       patternUnits="userSpaceOnUse"
       id="EMFhbasepattern-4" />
    <pattern
       y="0"
       x="0"
       height="6"
       width="6"
       patternUnits="userSpaceOnUse"
       id="EMFhbasepattern-3" />
  </defs>
  <sodipodi:namedview
     id="base"
     pagecolor="#ffffff"
     bordercolor="#666666"
     borderopacity="1.0"
     inkscape:pageopacity="0.0"
     inkscape:pageshadow="2"
     inkscape:zoom="31.678384"
     inkscape:cx="-2.9296101"
     inkscape:cy="8.3228343"
     inkscape:document-units="px"
     inkscape:current-layer="layer1"
     showgrid="false"
     fit-margin-top="0"
     fit-margin-left="0"
     fit-margin-right="0"
     fit-margin-bottom="0"
     inkscape:window-width="1858"
     inkscape:window-height="1057"
     inkscape:window-x="54"
     inkscape:window-y="-8"
     inkscape:window-maximized="1" />
  <metadata
     id="metadata7">
    <rdf:RDF>
      <cc:Work
         rdf:about="">
        <dc:format>image/svg+xml</dc:format>
        <dc:type
           rdf:resource="http://purl.org/dc/dcmitype/StillImage" />
        <dc:title></dc:title>
      </cc:Work>
    </rdf:RDF>
  </metadata>
  <g
     inkscape:label="Layer 1"
     inkscape:groupmode="layer"
     id="layer1"
     transform="translate(-499.82712,-614.9676)">
    <path
       inkscape:connector-curvature="0"
       id="path4180"
       d="m 504.88593,614.9676 c -2.79399,0 -5.05881,2.26482 -5.05881,5.05881 0,2.79397 2.26482,5.05877 5.05881,5.05877 2.79397,0 5.05877,-2.2648 5.05877,-5.05877 0,-2.79399 -2.2648,-5.05881 -5.05877,-5.05881 z m -1.54517,0.86783 c 0.14817,0 0.21167,0.12699 0.23283,0.63499 0.0212,0.16934 0.0423,0.29633 0.0635,0.29633 0.0423,0 0.635,0 1.31234,0 l 1.26997,0 0,-0.38099 c 0,-0.4445 0.127,-0.635 0.33866,-0.508 0.0847,0.0635 0.127,0.21166 0.14817,0.48683 l 0.0212,0.40216 0.48683,0 c 0.889,0 1.16417,0.23284 1.16417,0.9525 l 0,0.35982 -3.49247,0 -3.49249,0 0,-0.38099 c 0,-0.3175 0.0423,-0.42333 0.21167,-0.63499 0.21166,-0.254 0.21166,-0.254 0.84666,-0.27517 l 0.63499,0 0.0212,-0.3175 c 0.0423,-0.508 0.0847,-0.63499 0.23283,-0.63499 z m 3.4078,1.24882 c -0.0212,0 -0.0212,0.0635 -0.0212,0.21167 0,0.29633 -0.16934,0.44449 -0.381,0.33866 -0.0847,-0.0423 -0.127,-0.14817 -0.127,-0.33866 0,-0.254 -0.0212,-0.254 -0.10584,-0.127 -0.16933,0.21166 -0.127,0.44449 0.0847,0.61383 0.23283,0.19049 0.3175,0.19049 0.55033,0 0.21167,-0.16934 0.23284,-0.40217 0.0847,-0.61383 -0.0423,-0.0423 -0.0635,-0.0847 -0.0847,-0.0847 z m -3.68297,0.0212 c 0,0 -0.0212,0.0212 -0.0423,0.0212 -0.16933,0.14817 -0.14817,0.55033 0.0423,0.69849 0.0847,0.0635 0.21167,0.10584 0.27517,0.10584 0.0635,0 0.1905,-0.0423 0.27517,-0.10584 0.1905,-0.14816 0.21166,-0.55032 0.0423,-0.69849 -0.0847,-0.0635 -0.10584,-0.0423 -0.10584,0.16934 0,0.31749 -0.14816,0.48683 -0.3175,0.33866 -0.0635,-0.0423 -0.10583,-0.1905 -0.10583,-0.33866 0,-0.16934 -0.0212,-0.21167 -0.0635,-0.1905 z m -1.67215,1.26999 3.49249,0 3.49247,0 0,2.4553 0,2.45533 -0.23284,0.254 -0.21166,0.254 -3.02681,0 -3.00565,0 -0.254,-0.254 -0.254,-0.254 0,-2.45533 0,-2.4553 z m 0.59266,0.48683 0,0.635 0,0.61383 0.59267,0 0.61382,0 0,-0.61383 0,-0.635 -0.61382,0 -0.59267,0 z m 1.50283,0 0,0.635 0,0.61383 0.61383,0 0.61383,0 0,-0.61383 0,-0.635 -0.61383,0 -0.61383,0 z m 1.5875,0 0,0.635 0,0.61383 0.59263,0 0.61384,0 0,-0.61383 0,-0.635 -0.61384,0 -0.59263,0 z m 1.5663,0 0,0.635 0,0.61383 0.61383,0 0.61384,0 0,-0.61383 0,-0.635 -0.61384,0 -0.61383,0 z m -4.65663,1.60867 0,0.6138 0,0.61383 0.59267,0 0.61382,0 0,-0.61383 0,-0.6138 -0.61382,0 -0.59267,0 z m 1.50283,0 0,0.6138 0,0.61383 0.61383,0 0.61383,0 0,-0.61383 0,-0.6138 -0.61383,0 -0.61383,0 z m 1.5875,0 0,0.6138 0,0.61383 0.59263,0 0.61384,0 0,-0.61383 0,-0.6138 -0.61384,0 -0.59263,0 z m 1.5663,0 0,0.6138 0,0.61383 0.61383,0 0.61384,0 0,-0.61383 0,-0.6138 -0.61384,0 -0.61383,0 z m -4.65663,1.5028 0,0.65617 0,0.65616 0.59267,-0.0212 0.59266,-0.0212 0,-0.61383 0,-0.61384 -0.59266,-0.0212 -0.59267,-0.0212 z m 2.73049,0 -0.59266,0.0212 -0.59267,0.0212 -0.0212,0.52917 c -0.0212,0.29633 -0.0212,0.59267 0,0.635 0.0423,0.0847 0.21167,0.10583 0.61383,0.10583 l 0.59267,0 0,-0.65616 0,-0.65617 z m 1.92614,0 0,0.65617 0,0.65616 0.61383,0 0.61384,0 -0.0212,-0.635 -0.0212,-0.635 -0.59266,-0.0212 -0.59267,-0.0212 z m -1.5663,0 0,0.65617 0,0.65616 0.59263,0 0.61384,0 0,-0.65616 0,-0.65617 -0.61384,0 -0.59263,0 z"
       style="fill:#373a36;fill-opacity:1;fill-rule:nonzero;stroke:none" />
  </g>
</svg>
