<?xml version="1.0" encoding="UTF-8" standalone="no"?>
<!-- Created with Inkscape (http://www.inkscape.org/) -->

<svg
   xmlns:dc="http://purl.org/dc/elements/1.1/"
   xmlns:cc="http://creativecommons.org/ns#"
   xmlns:rdf="http://www.w3.org/1999/02/22-rdf-syntax-ns#"
   xmlns:svg="http://www.w3.org/2000/svg"
   xmlns="http://www.w3.org/2000/svg"
   xmlns:sodipodi="http://sodipodi.sourceforge.net/DTD/sodipodi-0.dtd"
   xmlns:inkscape="http://www.inkscape.org/namespaces/inkscape"
   width="2.8434482mm"
   height="2.8434594mm"
   viewBox="0 0 10.07521 10.07525"
   id="svg2"
   version="1.1"
   inkscape:version="0.91 r13725">
  <defs
     id="defs4">
    <pattern
       y="0"
       x="0"
       height="6"
       width="6"
       patternUnits="userSpaceOnUse"
       id="EMFhbasepattern" />
  </defs>
  <sodipodi:namedview
     id="base"
     pagecolor="#ffffff"
     bordercolor="#666666"
     borderopacity="1.0"
     inkscape:pageopacity="0.0"
     inkscape:pageshadow="2"
     inkscape:zoom="0.35"
     inkscape:cx="-555.67666"
     inkscape:cy="96.466165"
     inkscape:document-units="px"
     inkscape:current-layer="layer1"
     showgrid="false"
     fit-margin-top="0"
     fit-margin-left="0"
     fit-margin-right="0"
     fit-margin-bottom="0"
     inkscape:window-width="1858"
     inkscape:window-height="1057"
     inkscape:window-x="54"
     inkscape:window-y="-8"
     inkscape:window-maximized="1" />
  <metadata
     id="metadata7">
    <rdf:RDF>
      <cc:Work
         rdf:about="">
        <dc:format>image/svg+xml</dc:format>
        <dc:type
           rdf:resource="http://purl.org/dc/dcmitype/StillImage" />
        <dc:title></dc:title>
      </cc:Work>
    </rdf:RDF>
  </metadata>
  <g
     inkscape:label="Layer 1"
     inkscape:groupmode="layer"
     id="layer1"
     transform="translate(-503.5338,-618.75312)">
    <path
       inkscape:connector-curvature="0"
       id="path4141"
       d="m 508.57144,618.75315 c -2.77282,0 -5.03764,2.26482 -5.03764,5.03764 0,0.88897 0.23284,1.77797 0.6985,2.53997 0.1905,0 1.50282,-0.0212 3.23848,-0.0212 l 3.38663,0 -0.0847,0.10584 c -0.33867,0.42333 -0.86784,0.8255 -1.43934,1.03716 l -0.2328,0.10584 -1.651,0 -1.62982,0 -0.254,-0.10584 0,0 c -0.35983,-0.14816 -0.67733,-0.33866 -0.97366,-0.5715 0.95249,1.22767 2.41298,1.94731 3.97931,1.94731 2.79397,0 5.03761,-2.24364 5.03761,-5.03761 0,-0.65617 -0.127,-1.29117 -0.381,-1.905 0.0847,0.27517 0.127,0.5715 0.127,0.91017 0,0.91016 -0.31747,1.67216 -0.95247,2.3283 -0.508,0.508 -1.12183,0.8255 -1.778,0.93133 -0.27517,0.0423 -0.59267,0.0635 -0.61383,0.0423 -0.0212,-0.0212 0.27516,-0.4445 0.3175,-0.4445 0.0423,0 0.14816,-0.0212 0.254,-0.0423 0.254,-0.0423 0.508,-0.127 0.78316,-0.27516 0.71967,-0.381 1.24884,-1.03714 1.48167,-1.84147 0.0423,-0.21167 0.0635,-0.27517 0.0635,-0.6985 0,-0.42334 -0.0212,-0.48684 -0.0635,-0.6985 -0.14817,-0.508 -0.381,-0.91016 -0.71967,-1.26999 -0.59266,-0.635 -1.35466,-0.93133 -2.20133,-0.91016 -0.97364,0.0635 -1.84147,0.57149 -2.34947,1.41816 -0.254,0.42332 -0.381,0.84665 -0.381,1.39699 l -0.0212,0.33866 -0.21166,0 -0.1905,0 -0.0212,-0.29633 c -0.0212,-1.37582 0.91017,-2.66698 2.26483,-3.11148 0.33864,-0.127 0.63497,-0.16933 1.03714,-0.16933 0.5715,0 0.99483,0.10583 1.48167,0.35983 0.23283,0.10583 0.42333,0.23283 0.61383,0.381 -0.9525,-0.95249 -2.24367,-1.48166 -3.57714,-1.48166 z m 1.62981,1.43932 c 0.0847,0 0.16933,0.0212 0.23283,0.0212 0.93133,0.14817 1.7145,0.762 2.05317,1.65098 0.23283,0.59267 0.21166,1.31234 -0.0212,1.88384 -0.27517,0.71966 -0.889,1.29114 -1.62983,1.52397 -0.1905,0.0635 -0.42334,0.10583 -0.42334,0.0847 0,0 0.0423,-0.0847 0.0635,-0.1905 0.10584,-0.29634 0.14817,-0.59267 0.14817,-0.93131 0,-0.35983 -0.0212,-0.59267 -0.127,-0.91017 l -0.0847,-0.23283 -1.48163,0 -1.4605,-0.0212 0,-0.33866 c 0,-0.23284 0,-0.381 0.0423,-0.55034 0.23283,-0.93132 0.9525,-1.65098 1.90497,-1.90498 0.1905,-0.0635 0.508,-0.0847 0.78317,-0.0847 z m -5.16462,3.19615 2.58231,0 2.58231,0.0212 0.0635,0.16933 c 0.1905,0.8255 -0.0212,1.79914 -0.59267,2.41298 l -0.10583,0.127 -1.94731,0 -1.96849,0 -0.10583,-0.14817 c -0.0847,-0.10583 -0.10583,-0.127 -0.16933,-0.127 -0.0423,0.0212 -0.14816,0.0212 -0.254,0.0423 -0.29633,0.0212 -0.46566,-0.0423 -0.63499,-0.21166 -0.48683,-0.4445 -0.61383,-1.52398 -0.23283,-1.84148 0.10583,-0.0847 0.25399,-0.127 0.48683,-0.10583 0.16933,0 0.21166,0 0.23283,-0.0423 0,-0.0212 0.0212,-0.0847 0.0423,-0.16934 l 0.0212,-0.127 z m -0.27517,0.635 c -0.31749,0 -0.46566,0.16934 -0.46566,0.55031 0,0.4445 0.1905,0.84667 0.46566,0.97367 0.127,0.0635 0.381,0.0847 0.46567,0.0423 0.0423,-0.0212 0.0423,-0.0423 0,-0.10584 -0.0847,-0.127 -0.21167,-0.508 -0.254,-0.71966 -0.0423,-0.127 -0.0423,-0.33864 -0.0635,-0.48681 l 0,-0.254 -0.14817,0 z"
       style="fill:#373a36;fill-opacity:1;fill-rule:nonzero;stroke:none" />
  </g>
</svg>
