<?xml version="1.0" encoding="UTF-8" standalone="no"?>
<!-- Created with Inkscape (http://www.inkscape.org/) -->

<svg
   xmlns:dc="http://purl.org/dc/elements/1.1/"
   xmlns:cc="http://creativecommons.org/ns#"
   xmlns:rdf="http://www.w3.org/1999/02/22-rdf-syntax-ns#"
   xmlns:svg="http://www.w3.org/2000/svg"
   xmlns="http://www.w3.org/2000/svg"
   xmlns:sodipodi="http://sodipodi.sourceforge.net/DTD/sodipodi-0.dtd"
   xmlns:inkscape="http://www.inkscape.org/namespaces/inkscape"
   width="2.8434594mm"
   height="2.8434594mm"
   viewBox="0 0 10.07525 10.07525"
   id="svg2"
   version="1.1"
   inkscape:version="0.91 r13725">
  <defs
     id="defs4">
    <pattern
       y="0"
       x="0"
       height="6"
       width="6"
       patternUnits="userSpaceOnUse"
       id="EMFhbasepattern" />
    <pattern
       y="0"
       x="0"
       height="6"
       width="6"
       patternUnits="userSpaceOnUse"
       id="EMFhbasepattern-5" />
    <pattern
       y="0"
       x="0"
       height="6"
       width="6"
       patternUnits="userSpaceOnUse"
       id="EMFhbasepattern-4" />
  </defs>
  <sodipodi:namedview
     id="base"
     pagecolor="#ffffff"
     bordercolor="#666666"
     borderopacity="1.0"
     inkscape:pageopacity="0.0"
     inkscape:pageshadow="2"
     inkscape:zoom="31.678384"
     inkscape:cx="-6.0943601"
     inkscape:cy="9.356524"
     inkscape:document-units="px"
     inkscape:current-layer="layer1"
     showgrid="false"
     fit-margin-top="0"
     fit-margin-left="0"
     fit-margin-right="0"
     fit-margin-bottom="0"
     inkscape:window-width="1858"
     inkscape:window-height="1057"
     inkscape:window-x="54"
     inkscape:window-y="-8"
     inkscape:window-maximized="1" />
  <metadata
     id="metadata7">
    <rdf:RDF>
      <cc:Work
         rdf:about="">
        <dc:format>image/svg+xml</dc:format>
        <dc:type
           rdf:resource="http://purl.org/dc/dcmitype/StillImage" />
        <dc:title></dc:title>
      </cc:Work>
    </rdf:RDF>
  </metadata>
  <g
     inkscape:label="Layer 1"
     inkscape:groupmode="layer"
     id="layer1"
     transform="translate(-502.99187,-616.04362)">
    <path
       inkscape:connector-curvature="0"
       id="path4167"
       d="m 508.02951,616.04362 c -2.77282,0 -5.03764,2.26482 -5.03764,5.03764 0,2.79397 2.26482,5.03761 5.03764,5.03761 2.79397,0 5.03761,-2.24364 5.03761,-5.03761 0,-2.77282 -2.24364,-5.03764 -5.03761,-5.03764 z m -0.16933,1.01599 0.4445,0 c 0,0 0,0.0212 0,0.0423 l 0,3.64065 c 0,0 0,0.0212 0,0.0212 l -0.4445,0 c 0,0 0,-0.0212 0,-0.0212 l 0,-3.64065 c 0,-0.0212 0,-0.0423 0,-0.0423 z m 0.635,3.61948 2.68813,0 c 0.0212,0 0.0212,0 0.0212,0.0212 l 0,0.42333 c 0,0 0,0.0212 -0.0212,0.0212 l -2.68813,0 c -0.0212,0 -0.0423,-0.0212 -0.0423,-0.0212 l 0,-0.42333 c 0,-0.0212 0.0212,-0.0212 0.0423,-0.0212 z"
       style="fill:#373a36;fill-opacity:1;fill-rule:nonzero;stroke:none" />
  </g>
</svg>
