<?xml version="1.0" encoding="UTF-8" standalone="no"?>
<!-- Created with Inkscape (http://www.inkscape.org/) -->

<svg
   xmlns:dc="http://purl.org/dc/elements/1.1/"
   xmlns:cc="http://creativecommons.org/ns#"
   xmlns:rdf="http://www.w3.org/1999/02/22-rdf-syntax-ns#"
   xmlns:svg="http://www.w3.org/2000/svg"
   xmlns="http://www.w3.org/2000/svg"
   xmlns:sodipodi="http://sodipodi.sourceforge.net/DTD/sodipodi-0.dtd"
   xmlns:inkscape="http://www.inkscape.org/namespaces/inkscape"
   width="19.864359mm"
   height="19.938366mm"
   viewBox="0 0 70.385528 70.647758"
   id="svg2"
   version="1.1"
   inkscape:version="0.91 r13725">
  <defs
     id="defs4">
    <pattern
       y="0"
       x="0"
       height="6"
       width="6"
       patternUnits="userSpaceOnUse"
       id="EMFhbasepattern" />
    <pattern
       y="0"
       x="0"
       height="6"
       width="6"
       patternUnits="userSpaceOnUse"
       id="EMFhbasepattern-5" />
    <pattern
       y="0"
       x="0"
       height="6"
       width="6"
       patternUnits="userSpaceOnUse"
       id="EMFhbasepattern-4" />
    <pattern
       y="0"
       x="0"
       height="6"
       width="6"
       patternUnits="userSpaceOnUse"
       id="EMFhbasepattern-3" />
    <pattern
       y="0"
       x="0"
       height="6"
       width="6"
       patternUnits="userSpaceOnUse"
       id="EMFhbasepattern-40" />
  </defs>
  <sodipodi:namedview
     id="base"
     pagecolor="#ffffff"
     bordercolor="#666666"
     borderopacity="1.0"
     inkscape:pageopacity="0.0"
     inkscape:pageshadow="2"
     inkscape:zoom="3.959798"
     inkscape:cx="36.698662"
     inkscape:cy="-14.458311"
     inkscape:document-units="px"
     inkscape:current-layer="layer1"
     showgrid="false"
     fit-margin-top="0"
     fit-margin-left="0"
     fit-margin-right="0"
     fit-margin-bottom="0"
     inkscape:window-width="1858"
     inkscape:window-height="1057"
     inkscape:window-x="54"
     inkscape:window-y="-8"
     inkscape:window-maximized="1" />
  <metadata
     id="metadata7">
    <rdf:RDF>
      <cc:Work
         rdf:about="">
        <dc:format>image/svg+xml</dc:format>
        <dc:type
           rdf:resource="http://purl.org/dc/dcmitype/StillImage" />
        <dc:title></dc:title>
      </cc:Work>
    </rdf:RDF>
  </metadata>
  <g
     inkscape:label="Layer 1"
     inkscape:groupmode="layer"
     id="layer1"
     transform="translate(-409.63158,-501.2003)">
    <path
       style="display:inline;opacity:1;fill:#a93932;fill-opacity:1;stroke:none;stroke-width:0.99999988;stroke-linecap:butt;stroke-linejoin:round;stroke-miterlimit:4;stroke-dasharray:none;stroke-opacity:1"
       d="m 409.93824,501.2003 c -0.17009,0 -0.30666,0.12179 -0.30666,0.27226 l 0,70.10466 c 0,0.15048 0.13657,0.27084 0.30666,0.27084 l 69.77077,0 c 0.17011,0 0.3081,-0.12036 0.3081,-0.27084 l 0,-34.33869 0,-1.0991 0,-34.66687 c 0,-0.15047 -0.13799,-0.27226 -0.3081,-0.27226 l -69.77077,0 z m 35.39051,11.27475 a 12.051318,12.194786 0 0 1 1.20372,0.0617 12.051318,12.194786 0 0 1 1.19081,0.18199 12.051318,12.194786 0 0 1 1.16645,0.30093 12.051318,12.194786 0 0 1 1.13206,0.41843 12.051318,12.194786 0 0 1 1.08477,0.5302 12.051318,12.194786 0 0 1 1.02746,0.63768 12.051318,12.194786 0 0 1 0.95867,0.73656 12.051318,12.194786 0 0 1 0.88128,0.83113 12.051318,12.194786 0 0 1 0.79531,0.91569 12.051318,12.194786 0 0 1 0.70073,0.99162 12.051318,12.194786 0 0 1 0.599,1.05755 12.051318,12.194786 0 0 1 0.49294,1.11343 12.051318,12.194786 0 0 1 0.37974,1.15642 12.051318,12.194786 0 0 1 0.26367,1.18937 12.051318,12.194786 0 0 1 0.14473,1.20945 12.051318,12.194786 0 0 1 0.0302,0.86409 12.051318,12.194786 0 0 1 -0.0616,1.21662 12.051318,12.194786 0 0 1 -0.182,1.20513 12.051318,12.194786 0 0 1 -0.29949,1.18079 12.051318,12.194786 0 0 1 -0.41557,1.14496 12.051318,12.194786 0 0 1 -0.52447,1.09624 12.051318,12.194786 0 0 1 -0.63196,1.0389 12.051318,12.194786 0 0 1 -0.73082,0.96871 12.051318,12.194786 0 0 1 -0.82252,0.88989 12.051318,12.194786 0 0 1 -0.90566,0.8039 12.051318,12.194786 0 0 1 -0.98159,0.7079 12.051318,12.194786 0 0 1 -1.04465,0.60472 12.051318,12.194786 0 0 1 -0.51732,0.24935 21.663678,22.094082 0 0 1 2.07784,0.62477 21.663678,22.094082 0 0 1 2.00475,0.834 21.663678,22.094082 0 0 1 1.91448,1.03318 21.663678,22.094082 0 0 1 1.8027,1.22234 21.663678,22.094082 0 0 1 1.67372,1.40147 21.663678,22.094082 0 0 1 1.52901,1.56338 21.663678,22.094082 0 0 1 1.3685,1.71244 21.663678,22.094082 0 0 1 1.19368,1.84281 21.663678,22.094082 0 0 1 1.00739,1.95461 21.663678,22.094082 0 0 1 0.81107,2.04773 21.663678,22.094082 0 0 1 0.60615,2.12082 21.663678,22.094082 0 0 1 0.3955,2.17098 21.663678,22.094082 0 0 1 0.18057,2.20108 21.663678,22.094082 0 0 1 0.0114,0.44279 l -43.30491,0 a 21.663678,22.094082 0 0 1 0.13899,-2.20394 21.663678,22.094082 0 0 1 0.35252,-2.17957 21.663678,22.094082 0 0 1 0.5646,-2.13087 21.663678,22.094082 0 0 1 0.77096,-2.06493 21.663678,22.094082 0 0 1 0.97013,-1.97465 21.663678,22.094082 0 0 1 1.15641,-1.86576 21.663678,22.094082 0 0 1 1.33555,-1.73965 21.663678,22.094082 0 0 1 1.49747,-1.59491 21.663678,22.094082 0 0 1 1.6465,-1.43442 21.663678,22.094082 0 0 1 1.77836,-1.2596 21.663678,22.094082 0 0 1 1.89296,-1.07187 21.663678,22.094082 0 0 1 1.98899,-0.87413 21.663678,22.094082 0 0 1 2.06493,-0.66777 21.663678,22.094082 0 0 1 0.60473,-0.1519 12.051318,12.194786 0 0 1 -1.06901,-0.56317 12.051318,12.194786 0 0 1 -1.00595,-0.66919 12.051318,12.194786 0 0 1 -0.93719,-0.76666 12.051318,12.194786 0 0 1 -0.85549,-0.85835 12.051318,12.194786 0 0 1 -0.76664,-0.94005 12.051318,12.194786 0 0 1 -0.67065,-1.01312 12.051318,12.194786 0 0 1 -0.56746,-1.07474 12.051318,12.194786 0 0 1 -0.45711,-1.12776 12.051318,12.194786 0 0 1 -0.34537,-1.16789 12.051318,12.194786 0 0 1 -0.22784,-1.19655 12.051318,12.194786 0 0 1 -0.10746,-1.21517 12.051318,12.194786 0 0 1 -0.0101,-0.47289 12.051318,12.194786 0 0 1 0.0601,-1.21803 12.051318,12.194786 0 0 1 0.17913,-1.20515 12.051318,12.194786 0 0 1 0.29805,-1.18078 12.051318,12.194786 0 0 1 0.41414,-1.14496 12.051318,12.194786 0 0 1 0.52304,-1.09767 12.051318,12.194786 0 0 1 0.63051,-1.03892 12.051318,12.194786 0 0 1 0.72796,-0.97155 12.051318,12.194786 0 0 1 0.8211,-0.89132 12.051318,12.194786 0 0 1 0.90565,-0.80535 12.051318,12.194786 0 0 1 0.98017,-0.70789 12.051318,12.194786 0 0 1 1.04464,-0.60759 12.051318,12.194786 0 0 1 1.0991,-0.49726 12.051318,12.194786 0 0 1 1.14353,-0.38404 12.051318,12.194786 0 0 1 1.17506,-0.26796 12.051318,12.194786 0 0 1 1.19655,-0.14617 12.051318,12.194786 0 0 1 0.85261,-0.0316 z m -28.85465,3.4535 a 35.165967,35.165967 0 0 0 -1.19225,1.668 35.165967,35.165967 0 0 1 1.19225,-1.668 z m -1.82992,2.78 a 35.165967,35.165967 0 0 0 -1.112,1.93741 35.165967,35.165967 0 0 1 1.112,-1.93741 z m -3.796,9.10951 a 35.165967,35.165967 0 0 0 -0.62907,2.80149 35.165967,35.165967 0 0 1 0.62907,-2.80149 z m 67.63276,19.01719 a 35.165967,35.165967 0 0 1 -0.83256,2.50343 35.165967,35.165967 0 0 0 0.83256,-2.50343 z"
       id="path4732-7-6-8-7-0"
       inkscape:connector-curvature="0" />
  </g>
</svg>
