<?xml version="1.0" encoding="UTF-8" standalone="no"?>
<!-- Created with Inkscape (http://www.inkscape.org/) -->

<svg
   xmlns:dc="http://purl.org/dc/elements/1.1/"
   xmlns:cc="http://creativecommons.org/ns#"
   xmlns:rdf="http://www.w3.org/1999/02/22-rdf-syntax-ns#"
   xmlns:svg="http://www.w3.org/2000/svg"
   xmlns="http://www.w3.org/2000/svg"
   xmlns:sodipodi="http://sodipodi.sourceforge.net/DTD/sodipodi-0.dtd"
   xmlns:inkscape="http://www.inkscape.org/namespaces/inkscape"
   width="10.130237mm"
   height="10.129678mm"
   viewBox="0 0 35.894541 35.892561"
   id="svg2"
   version="1.1"
   inkscape:version="0.91 r13725">
  <defs
     id="defs4">
    <pattern
       y="0"
       x="0"
       height="6"
       width="6"
       patternUnits="userSpaceOnUse"
       id="EMFhbasepattern" />
    <pattern
       y="0"
       x="0"
       height="6"
       width="6"
       patternUnits="userSpaceOnUse"
       id="EMFhbasepattern-5" />
    <pattern
       y="0"
       x="0"
       height="6"
       width="6"
       patternUnits="userSpaceOnUse"
       id="EMFhbasepattern-4" />
    <pattern
       y="0"
       x="0"
       height="6"
       width="6"
       patternUnits="userSpaceOnUse"
       id="EMFhbasepattern-3" />
  </defs>
  <sodipodi:namedview
     id="base"
     pagecolor="#ffffff"
     bordercolor="#666666"
     borderopacity="1.0"
     inkscape:pageopacity="0.0"
     inkscape:pageshadow="2"
     inkscape:zoom="7.9195959"
     inkscape:cx="24.041553"
     inkscape:cy="2.7245077"
     inkscape:document-units="px"
     inkscape:current-layer="layer1"
     showgrid="false"
     fit-margin-top="0"
     fit-margin-left="0"
     fit-margin-right="0"
     fit-margin-bottom="0"
     inkscape:window-width="1858"
     inkscape:window-height="1057"
     inkscape:window-x="54"
     inkscape:window-y="-8"
     inkscape:window-maximized="1" />
  <metadata
     id="metadata7">
    <rdf:RDF>
      <cc:Work
         rdf:about="">
        <dc:format>image/svg+xml</dc:format>
        <dc:type
           rdf:resource="http://purl.org/dc/dcmitype/StillImage" />
        <dc:title></dc:title>
      </cc:Work>
    </rdf:RDF>
  </metadata>
  <g
     inkscape:label="Layer 1"
     inkscape:groupmode="layer"
     id="layer1"
     transform="translate(-505.34393,-594.28142)">
    <path
       style="display:inline;opacity:1;fill:#373a36;fill-opacity:1;stroke:none;stroke-width:1.61800003;stroke-linecap:butt;stroke-linejoin:round;stroke-miterlimit:4;stroke-dasharray:none;stroke-opacity:1"
       d="m 523.2912,594.28142 a 17.946428,17.946428 0 0 0 -17.94727,17.94726 17.946428,17.946428 0 0 0 17.94727,17.9453 17.946428,17.946428 0 0 0 17.94727,-17.9453 17.946428,17.946428 0 0 0 -17.94727,-17.94726 z m -3.70312,4.10156 c 0.0727,0.005 0.14336,0.0225 0.21093,0.0547 0.35808,0.17076 0.38092,0.25294 0.38477,1.44921 0.003,0.90817 -0.0119,1.09678 -0.0918,1.21876 -0.20835,0.31798 -0.66684,0.37021 -0.95898,0.10937 l -0.18555,-0.16602 -0.0156,-1.10156 c -0.0146,-1.01382 -0.008,-1.11369 0.0957,-1.28125 0.11895,-0.19185 0.34258,-0.29704 0.56055,-0.2832 z m 7.49804,0.01 c 0.21085,0 0.28691,0.0312 0.44141,0.18555 l 0.18555,0.18555 0.0176,0.98047 c 0.0117,0.61863 -0.004,1.06093 -0.0449,1.19726 -0.11802,0.39653 -0.6662,0.57561 -0.98828,0.32227 -0.23289,-0.1832 -0.2763,-0.43883 -0.25586,-1.51953 l 0.0195,-0.98047 0.18555,-0.18555 c 0.1545,-0.15438 0.2286,-0.18555 0.43945,-0.18555 z m -8.62304,1.04688 0,0.24609 c -3.4e-4,0.13447 -0.0163,0.33716 -0.0352,0.45117 -0.0332,0.20093 -0.0455,0.2082 -0.36719,0.27149 -0.45148,0.0888 -1.07502,0.41207 -1.39258,0.7207 -0.52185,0.50718 -0.68468,1.11579 -0.62695,2.33008 0.2519,5.29881 1.93029,8.67139 4.89844,9.8457 0.76664,0.30332 1.34908,0.38361 2.58984,0.35547 1.30166,-0.0295 1.68352,-0.11028 2.58984,-0.55078 1.30529,-0.63439 2.36057,-1.75257 3.10547,-3.28516 0.83023,-1.70813 1.34659,-4.22563 1.37696,-6.71679 0.0103,-0.84349 -0.0583,-1.18492 -0.32813,-1.61328 -0.32256,-0.5122 -1.00563,-0.94614 -1.70898,-1.08594 l -0.36914,-0.0723 0,-0.44922 0,-0.44726 0.21484,0.0371 c 1.66449,0.28586 2.68321,1.17669 3.00586,2.62695 0.0806,0.36223 0.0913,0.59748 0.0605,1.34375 -0.21134,5.12644 -1.8046,8.67061 -4.62305,10.28321 -0.72118,0.41263 -1.73036,0.72178 -2.7207,0.83007 l -0.33594,0.0352 0.0352,0.94922 c 0.0755,2.01155 0.39553,3.85618 0.9746,5.61523 0.65864,2.00074 1.59816,3.50055 2.67579,4.26953 0.55278,0.39446 0.87798,0.50385 1.50976,0.50781 0.49124,0.003 0.576,-0.0113 0.91211,-0.17188 1.02384,-0.48908 1.8198,-1.40999 2.5918,-2.99608 0.64585,-1.32688 1.14857,-3.08646 1.4043,-4.91602 0.0964,-0.68961 0.14813,-0.92843 0.20117,-0.9082 0.0395,0.0151 0.23831,0.0456 0.4414,0.0664 0.43109,0.0442 0.41183,-0.0182 0.28125,0.86915 -0.40246,2.73463 -1.1559,4.9448 -2.23632,6.56054 -1.16984,1.74946 -2.66325,2.58242 -4.16407,2.32421 -2.22741,-0.3832 -4.13658,-3.16754 -5.0332,-7.34179 -0.27721,-1.29059 -0.48828,-3.13213 -0.48828,-4.25976 l 0,-0.55469 -0.70117,-0.0957 c -4.01217,-0.54734 -6.49165,-4.1253 -6.98047,-10.07617 -0.10264,-1.24965 -0.08,-2.06398 0.0723,-2.58985 0.37722,-1.30239 1.38203,-2.10706 2.95703,-2.37109 l 0.2129,-0.0371 z m 16.125,12.42773 c 0.91118,-0.0498 1.80044,0.45057 2.22265,1.3418 0.16746,0.35347 0.17969,0.42579 0.17969,0.98242 0,0.57994 -0.007,0.6137 -0.21484,1.03321 -0.25409,0.51411 -0.58201,0.83313 -1.1211,1.08789 -0.47743,0.22562 -1.1609,0.2689 -1.66211,0.10351 -0.41516,-0.13699 -0.65685,-0.29059 -0.96484,-0.60742 -1.10943,-1.14128 -0.78051,-2.99207 0.6582,-3.70312 0.29216,-0.14439 0.59862,-0.2217 0.90235,-0.23829 z m 0.125,0.47071 c -0.48042,-4e-4 -0.61048,0.0198 -0.83594,0.13086 -0.35386,0.1743 -0.68913,0.50736 -0.88282,0.87695 -0.1398,0.26674 -0.15745,0.36226 -0.1582,0.8418 -9.9e-4,0.63538 0.1196,0.94773 0.51758,1.3457 0.57899,0.57899 1.3848,0.72476 2.12891,0.38477 0.55131,-0.25191 0.90393,-0.68143 1.05859,-1.28516 0.21539,-0.84073 -0.20162,-1.73212 -1.01367,-2.16406 -0.20742,-0.11033 -0.33151,-0.13044 -0.81445,-0.13086 z"
       id="path4583"
       inkscape:connector-curvature="0" />
  </g>
</svg>
