<?xml version="1.0" encoding="UTF-8" standalone="no"?>
<!-- Created with Inkscape (http://www.inkscape.org/) -->

<svg
   xmlns:dc="http://purl.org/dc/elements/1.1/"
   xmlns:cc="http://creativecommons.org/ns#"
   xmlns:rdf="http://www.w3.org/1999/02/22-rdf-syntax-ns#"
   xmlns:svg="http://www.w3.org/2000/svg"
   xmlns="http://www.w3.org/2000/svg"
   xmlns:sodipodi="http://sodipodi.sourceforge.net/DTD/sodipodi-0.dtd"
   xmlns:inkscape="http://www.inkscape.org/namespaces/inkscape"
   width="2.8434594mm"
   height="2.8434594mm"
   viewBox="0 0 10.07525 10.07525"
   id="svg2"
   version="1.1"
   inkscape:version="0.91 r13725">
  <defs
     id="defs4">
    <pattern
       y="0"
       x="0"
       height="6"
       width="6"
       patternUnits="userSpaceOnUse"
       id="EMFhbasepattern" />
    <pattern
       y="0"
       x="0"
       height="6"
       width="6"
       patternUnits="userSpaceOnUse"
       id="EMFhbasepattern-5" />
  </defs>
  <sodipodi:namedview
     id="base"
     pagecolor="#ffffff"
     bordercolor="#666666"
     borderopacity="1.0"
     inkscape:pageopacity="0.0"
     inkscape:pageshadow="2"
     inkscape:zoom="31.678384"
     inkscape:cx="-6.5231601"
     inkscape:cy="12.368554"
     inkscape:document-units="px"
     inkscape:current-layer="layer1"
     showgrid="false"
     fit-margin-top="0"
     fit-margin-left="0"
     fit-margin-right="0"
     fit-margin-bottom="0"
     inkscape:window-width="1858"
     inkscape:window-height="1057"
     inkscape:window-x="54"
     inkscape:window-y="-8"
     inkscape:window-maximized="1" />
  <metadata
     id="metadata7">
    <rdf:RDF>
      <cc:Work
         rdf:about="">
        <dc:format>image/svg+xml</dc:format>
        <dc:type
           rdf:resource="http://purl.org/dc/dcmitype/StillImage" />
        <dc:title></dc:title>
      </cc:Work>
    </rdf:RDF>
  </metadata>
  <g
     inkscape:label="Layer 1"
     inkscape:groupmode="layer"
     id="layer1"
     transform="translate(-503.42067,-619.05565)">
    <path
       inkscape:connector-curvature="0"
       id="path4154"
       d="m 508.45831,619.05565 c -2.77282,0 -5.03764,2.26482 -5.03764,5.03764 0,2.79397 2.26482,5.03761 5.03764,5.03761 2.79397,0 5.03761,-2.24364 5.03761,-5.03761 0,-2.77282 -2.24364,-5.03764 -5.03761,-5.03764 z m 1.07947,2.05315 c 0.508,0 0.91017,0.40217 0.91017,0.88899 0,0.508 -0.40217,0.91017 -0.91017,0.91017 -0.0423,0 -0.0847,0 -0.127,-0.0212 l 0.762,0.5715 0.61383,-0.61384 c 0.33867,-0.35983 0.86784,0.16934 0.52917,0.508 l -0.84667,0.84667 c -0.127,0.127 -0.33866,0.14817 -0.48683,0.0423 l -0.55033,-0.42333 -0.40214,0.61384 0.6773,0.33866 c 0.127,0.0846 0.21167,0.21164 0.21167,0.35981 l -0.0847,1.22766 0.1905,0.0212 c 0.48684,0.0423 0.42334,0.762 -0.0635,0.71967 l -0.52916,-0.0423 c -0.21167,0 -0.35981,-0.1905 -0.33864,-0.381 l 0.0846,-1.35466 -1.20648,-0.61381 -0.4445,0.65614 c -0.10583,0.14817 -0.3175,0.1905 -0.48683,0.0847 l -0.91016,-0.5715 -0.127,0.1905 c -0.27516,0.42333 -0.91016,0 -0.59266,-0.40214 l 0.3175,-0.48683 c 0.127,-0.16934 0.33866,-0.21167 0.508,-0.10584 l 0.82549,0.55034 c 0.14817,-0.1905 0.27517,-0.381 0.4445,-0.59267 l 0.6985,-1.12183 -0.46567,-0.33867 -0.78316,0.5715 c -0.40217,0.29633 -0.84666,-0.3175 -0.42334,-0.59267 l 1.016,-0.71966 c 0.0635,-0.0423 0.127,-0.0847 0.21167,-0.0635 0.0847,0 0.14817,0.0212 0.21167,0.0635 l 0.762,0.5715 c -0.0635,-0.127 -0.0847,-0.254 -0.0847,-0.40217 0,-0.48682 0.40216,-0.88899 0.88897,-0.88899 z"
       style="fill:#373a36;fill-opacity:1;fill-rule:nonzero;stroke:none" />
  </g>
</svg>
