<?xml version="1.0" encoding="UTF-8" standalone="no"?>
<!-- Created with Inkscape (http://www.inkscape.org/) -->

<svg
   xmlns:dc="http://purl.org/dc/elements/1.1/"
   xmlns:cc="http://creativecommons.org/ns#"
   xmlns:rdf="http://www.w3.org/1999/02/22-rdf-syntax-ns#"
   xmlns:svg="http://www.w3.org/2000/svg"
   xmlns="http://www.w3.org/2000/svg"
   xmlns:sodipodi="http://sodipodi.sourceforge.net/DTD/sodipodi-0.dtd"
   xmlns:inkscape="http://www.inkscape.org/namespaces/inkscape"
   width="8.8313389mm"
   height="8.9032726mm"
   viewBox="0 0 31.292147 31.547031"
   id="svg2"
   version="1.1"
   inkscape:version="0.91 r13725">
  <defs
     id="defs4">
    <pattern
       y="0"
       x="0"
       height="6"
       width="6"
       patternUnits="userSpaceOnUse"
       id="EMFhbasepattern" />
    <pattern
       y="0"
       x="0"
       height="6"
       width="6"
       patternUnits="userSpaceOnUse"
       id="EMFhbasepattern-5" />
    <pattern
       y="0"
       x="0"
       height="6"
       width="6"
       patternUnits="userSpaceOnUse"
       id="EMFhbasepattern-4" />
    <pattern
       y="0"
       x="0"
       height="6"
       width="6"
       patternUnits="userSpaceOnUse"
       id="EMFhbasepattern-3" />
    <pattern
       y="0"
       x="0"
       height="6"
       width="6"
       patternUnits="userSpaceOnUse"
       id="EMFhbasepattern-40" />
    <filter
       inkscape:collect="always"
       style="color-interpolation-filters:sRGB"
       id="filter6528-1"
       x="-0.0023974227"
       width="1.0047948"
       y="-0.0024025829"
       height="1.0048052">
      <feGaussianBlur
         inkscape:collect="always"
         stdDeviation="0.03007145"
         id="feGaussianBlur6530-8" />
    </filter>
  </defs>
  <sodipodi:namedview
     id="base"
     pagecolor="#ffffff"
     bordercolor="#666666"
     borderopacity="1.0"
     inkscape:pageopacity="0.0"
     inkscape:pageshadow="2"
     inkscape:zoom="3.959798"
     inkscape:cx="2.5636065"
     inkscape:cy="-18.33682"
     inkscape:document-units="px"
     inkscape:current-layer="layer1"
     showgrid="false"
     fit-margin-top="0"
     fit-margin-left="0"
     fit-margin-right="0"
     fit-margin-bottom="0"
     inkscape:window-width="1858"
     inkscape:window-height="1057"
     inkscape:window-x="54"
     inkscape:window-y="-8"
     inkscape:window-maximized="1" />
  <metadata
     id="metadata7">
    <rdf:RDF>
      <cc:Work
         rdf:about="">
        <dc:format>image/svg+xml</dc:format>
        <dc:type
           rdf:resource="http://purl.org/dc/dcmitype/StillImage" />
        <dc:title></dc:title>
      </cc:Work>
    </rdf:RDF>
  </metadata>
  <g
     inkscape:label="Layer 1"
     inkscape:groupmode="layer"
     id="layer1"
     transform="translate(-443.76664,-536.42252)">
    <path
       style="display:inline;opacity:0.406;fill:#000000;fill-opacity:1;filter:url(#filter6528-1)"
       d="m 456.02284,567.84143 c -1.4369,-0.42603 -2.6355,-0.909 -3.5958,-1.44902 -0.2907,-0.16343 -0.5284,-0.30455 -0.5284,-0.3136 0,-0.009 0.057,-0.14522 0.1265,-0.30259 0.5654,-1.27847 0.2677,-2.9001 -0.7257,-3.95314 -1.0664,-1.13044 -2.6636,-1.4831 -4.1051,-0.90641 -0.1817,0.0727 -0.3432,0.13214 -0.3591,0.13214 -0.1024,0 -0.9512,-1.6613 -1.2995,-2.54352 -0.2468,-0.62496 -0.6123,-1.81797 -0.5835,-1.90437 0.01,-0.0265 0.1493,-0.10241 0.3122,-0.16868 0.9791,-0.39835 1.8003,-1.29202 2.1293,-2.31739 0.5837,-1.81873 -0.369,-3.8314 -2.1525,-4.54747 l -0.3584,-0.14391 0.033,-0.17992 c 0.049,-0.27278 0.3694,-1.3055 0.5751,-1.85645 0.27,-0.72346 1.0147,-2.24794 1.2293,-2.51671 0.01,-0.009 0.1312,0.0435 0.2756,0.1167 0.3789,0.19201 1.0417,0.33708 1.5419,0.3375 0.5814,5.2e-4 1.0768,-0.11819 1.6582,-0.39726 0.419,-0.20105 0.5544,-0.30093 0.9554,-0.70451 0.3282,-0.33024 0.5228,-0.57771 0.6539,-0.83114 0.5325,-1.02983 0.5907,-2.12952 0.1682,-3.17734 -0.094,-0.23399 -0.1604,-0.44336 -0.1469,-0.46526 0.014,-0.0219 0.2616,-0.17295 0.5511,-0.33567 1.0136,-0.56952 2.3458,-1.1156 3.4795,-1.42627 l 0.4702,-0.12884 0.061,0.18901 c 0.1217,0.38069 0.473,0.98468 0.7521,1.29305 0.4643,0.51312 1.0117,0.86681 1.6966,1.09622 0.3109,0.10414 0.4542,0.11923 1.1047,0.11634 0.6669,-0.003 0.7876,-0.0176 1.1182,-0.1356 0.6165,-0.22002 1.0385,-0.48652 1.4865,-0.93865 0.4109,-0.41477 0.7406,-0.94178 0.8993,-1.43767 0.045,-0.14216 0.086,-0.18898 0.1481,-0.17201 1.7335,0.47222 2.8029,0.89785 4.0607,1.61621 l 0.4179,0.23869 -0.1482,0.32699 c -0.4332,0.95537 -0.4127,2.22506 0.051,3.14199 0.6156,1.2178 1.781,1.99431 3.1024,2.06712 0.613,0.0338 1.0896,-0.0443 1.6505,-0.27048 0.2386,-0.0962 0.4374,-0.17031 0.4418,-0.16463 0.047,0.0616 0.5188,0.9287 0.6787,1.2476 0.4363,0.87014 1.1835,2.98209 1.1358,3.21027 -0.01,0.0385 -0.1661,0.13378 -0.3513,0.21179 -0.6848,0.28837 -1.413,0.92383 -1.7935,1.565 -0.5007,0.84361 -0.6364,2.02991 -0.3377,2.9522 0.3063,0.94574 1.0118,1.77983 1.8674,2.2077 0.2652,0.13261 0.5164,0.2411 0.5583,0.2411 0.059,0 0.068,0.038 0.04,0.16755 -0.081,0.3798 -0.4061,1.39151 -0.6252,1.94615 -0.2341,0.59228 -0.9734,2.08673 -1.142,2.3082 l -0.089,0.11717 -0.3086,-0.12539 c -0.9791,-0.39785 -2.0512,-0.37351 -2.9887,0.0678 -0.8162,0.38433 -1.3996,0.95168 -1.7794,1.73069 -0.2659,0.54539 -0.3585,0.96477 -0.3585,1.62394 0,0.59182 0.081,1.0189 0.2757,1.45998 l 0.1266,0.2862 -0.3437,0.20338 c -0.9214,0.54523 -2.1807,1.09311 -3.2598,1.41825 -0.9861,0.29708 -0.8667,0.32152 -1.1436,-0.234 -0.3867,-0.77585 -0.8993,-1.3032 -1.6433,-1.69042 -1.5374,-0.80013 -3.4091,-0.40984 -4.5745,0.95385 -0.1212,0.14177 -0.3272,0.47236 -0.4579,0.73464 -0.2564,0.51479 -0.2664,0.5213 -0.6322,0.41285 z m 5.1771,-7.69553 c 0.6972,-0.12159 1.313,-0.32242 1.9631,-0.64025 2.0471,-1.00077 3.4539,-2.77473 3.985,-5.02492 0.1202,-0.5094 0.1353,-0.67943 0.1372,-1.55161 0,-1.10376 -0.063,-1.53367 -0.3697,-2.41867 -0.3794,-1.09619 -0.9353,-1.98198 -1.7671,-2.81604 -1.0371,-1.03985 -2.2617,-1.70253 -3.7285,-2.01765 -0.6984,-0.15005 -2.1476,-0.16388 -2.8298,-0.027 -1.5004,0.30107 -2.797,0.98983 -3.8549,2.0478 -1.0583,1.05828 -1.7486,2.35808 -2.0474,3.85496 -0.1252,0.62732 -0.1238,2.02911 0,2.66356 0.2043,1.02587 0.6224,2.03854 1.1783,2.85414 0.3736,0.54807 1.4068,1.56859 1.9479,1.92394 1.0387,0.68211 2.1619,1.09291 3.351,1.22555 0.5308,0.0592 1.4638,0.0253 2.0323,-0.0738 z"
       id="path6505-0"
       inkscape:connector-curvature="0" />
    <path
       style="display:inline;fill:#ffffff;fill-opacity:1"
       d="m 454.90664,566.40565 c -1.4369,-0.42603 -2.6355,-0.90899 -3.5958,-1.44902 -0.2907,-0.16343 -0.5284,-0.30455 -0.5284,-0.3136 0,-0.009 0.057,-0.14522 0.1265,-0.30258 0.5654,-1.27848 0.2677,-2.90011 -0.7257,-3.95315 -1.0664,-1.13043 -2.6636,-1.4831 -4.1051,-0.9064 -0.1817,0.0727 -0.3432,0.13214 -0.3591,0.13214 -0.1024,0 -0.9512,-1.66131 -1.2995,-2.54352 -0.2468,-0.62496 -0.6123,-1.81797 -0.5835,-1.90438 0.01,-0.0265 0.1493,-0.10241 0.3122,-0.16867 0.9791,-0.39836 1.8003,-1.29203 2.1293,-2.3174 0.5837,-1.81873 -0.369,-3.83139 -2.1525,-4.54747 l -0.3584,-0.14391 0.033,-0.17991 c 0.049,-0.27279 0.3694,-1.3055 0.5751,-1.85646 0.27,-0.72346 1.0147,-2.24795 1.2293,-2.51671 0.01,-0.009 0.1312,0.0435 0.2756,0.1167 0.3789,0.19201 1.0417,0.33708 1.5419,0.3375 0.5814,5.1e-4 1.0768,-0.1182 1.6582,-0.39726 0.419,-0.20105 0.5544,-0.30094 0.9554,-0.70451 0.3282,-0.33024 0.5228,-0.5777 0.6539,-0.83113 0.5325,-1.02983 0.5907,-2.12952 0.1682,-3.17734 -0.094,-0.23399 -0.1604,-0.44336 -0.1469,-0.46526 0.014,-0.0219 0.2616,-0.17296 0.5511,-0.33568 1.0136,-0.56952 2.3458,-1.11559 3.4795,-1.42626 l 0.4702,-0.12885 0.061,0.18902 c 0.1217,0.38068 0.473,0.98467 0.7521,1.29304 0.4643,0.51313 1.0117,0.86681 1.6966,1.09622 0.3109,0.10414 0.4542,0.11923 1.1047,0.11635 0.6669,-0.003 0.7876,-0.0176 1.1182,-0.13561 0.6165,-0.22001 1.0385,-0.48652 1.4865,-0.93864 0.4109,-0.41478 0.7406,-0.94179 0.8993,-1.43767 0.045,-0.14217 0.086,-0.18898 0.1481,-0.17202 1.7335,0.47222 2.8029,0.89785 4.0607,1.61622 l 0.4179,0.23869 -0.1482,0.32698 c -0.4332,0.95538 -0.4127,2.22506 0.051,3.142 0.6156,1.21779 1.781,1.99429 3.1024,2.06711 0.613,0.0338 1.0896,-0.0444 1.6505,-0.27049 0.2386,-0.0962 0.4374,-0.1703 0.4418,-0.16463 0.047,0.0616 0.5188,0.92871 0.6787,1.24762 0.4363,0.87014 1.1835,2.98209 1.1358,3.21026 -0.01,0.0385 -0.1661,0.13379 -0.3513,0.21179 -0.6848,0.28837 -1.413,0.92384 -1.7935,1.56501 -0.5007,0.84361 -0.6364,2.0299 -0.3377,2.9522 0.3063,0.94574 1.0118,1.77982 1.8674,2.2077 0.2652,0.1326 0.5164,0.24109 0.5583,0.24109 0.059,0 0.068,0.038 0.04,0.16755 -0.081,0.3798 -0.4061,1.39152 -0.6252,1.94615 -0.2341,0.59228 -0.9734,2.08673 -1.142,2.3082 l -0.089,0.11717 -0.3086,-0.12538 c -0.9791,-0.39786 -2.0512,-0.37352 -2.9887,0.0679 -0.8162,0.38432 -1.3996,0.95167 -1.7794,1.73068 -0.2659,0.54539 -0.3585,0.96478 -0.3585,1.62394 0,0.59182 0.081,1.0189 0.2757,1.45999 l 0.1266,0.2862 -0.3437,0.20338 c -0.9214,0.54522 -2.1807,1.0931 -3.2598,1.41825 -0.9861,0.29708 -0.8667,0.32152 -1.1436,-0.234 -0.3867,-0.77586 -0.8993,-1.30321 -1.6433,-1.69043 -1.5374,-0.80012 -3.4091,-0.40984 -4.5745,0.95385 -0.1212,0.14178 -0.3272,0.47236 -0.4579,0.73464 -0.2564,0.5148 -0.2664,0.5213 -0.6322,0.41285 z m 5.1771,-7.69552 c 0.6972,-0.1216 1.313,-0.32242 1.9631,-0.64025 2.0471,-1.00077 3.4539,-2.77474 3.985,-5.02492 0.1202,-0.50941 0.1353,-0.67944 0.1372,-1.55162 0,-1.10376 -0.063,-1.53366 -0.3697,-2.41867 -0.3794,-1.09619 -0.9353,-1.98197 -1.7671,-2.81603 -1.0371,-1.03985 -2.2617,-1.70254 -3.7285,-2.01766 -0.6984,-0.15005 -2.1476,-0.16387 -2.8298,-0.027 -1.5004,0.30107 -2.797,0.98984 -3.8549,2.0478 -1.0583,1.05828 -1.7486,2.35808 -2.0474,3.85496 -0.1252,0.62732 -0.1238,2.02912 0,2.66356 0.2043,1.02587 0.6224,2.03854 1.1783,2.85414 0.3736,0.54808 1.4068,1.56859 1.9479,1.92394 1.0387,0.68212 2.1619,1.09291 3.351,1.22555 0.5308,0.0592 1.4638,0.0253 2.0323,-0.0738 z"
       id="path6505-4-2"
       inkscape:connector-curvature="0" />
  </g>
</svg>
